
<svg width="544" height="354" fill="none" xmlns="http://www.w3.org/2000/svg"><g filter="url(#a)"><rect x="4" width="536" height="346" rx="8" fill="#E8EAF6"/><mask id="b" style="mask-type:luminance" maskUnits="userSpaceOnUse" x="4" y="0" width="536" height="346"><rect x="4" width="536" height="346" rx="8" fill="#fff"/></mask><g mask="url(#b)"><path fill="#242A45" d="M.47.197h547v59H.47z"/><circle opacity=".245" cx="42.47" cy="30.197" r="16" fill="#fff"/><circle opacity=".104" cx="503.47" cy="30.197" r="16" fill="#fff"/><rect opacity=".75" x="73.47" y="20.197" width="120" height="6" rx="3" fill="#fff"/><rect opacity=".25" x="73.47" y="34.197" width="64" height="6" rx="3" fill="#fff"/><rect x="61" y="93" width="261" height="316" rx="8" fill="#fff"/><rect x="356" y="93" width="128" height="316" rx="8" fill="#fff"/><rect opacity=".5" x="139.47" y="131.197" width="120" height="6" rx="3" fill="#242A45"/></g><circle cx="108.47" cy="141.197" r="16" fill="#F98E5D"/><rect opacity=".25" x="376.47" y="115.197" width="88" height="6" rx="3" fill="#242A45"/><rect opacity=".25" x="376.47" y="135.197" width="88" height="6" rx="3" fill="#242A45"/><rect opacity=".25" x="376.47" y="155.197" width="88" height="6" rx="3" fill="#242A45"/><rect opacity=".25" x="376.47" y="175.197" width="88" height="6" rx="3" fill="#242A45"/><rect opacity=".25" x="376.47" y="209.197" width="88" height="6" rx="3" fill="#242A45"/><rect opacity=".25" x="376.47" y="229.197" width="88" height="6" rx="3" fill="#242A45"/><rect opacity=".25" x="376.47" y="249.197" width="88" height="6" rx="3" fill="#242A45"/><rect opacity=".25" x="139.47" y="145.197" width="64" height="6" rx="3" fill="#242A45"/><circle cx="108.47" cy="197.197" r="16" fill="#6AC6D6"/><rect opacity=".5" x="139.47" y="187.197" width="120" height="6" rx="3" fill="#242A45"/><rect opacity=".25" x="139.47" y="201.197" width="64" height="6" rx="3" fill="#242A45"/><circle cx="108.47" cy="253.197" r="16" fill="#A47ED4"/><rect opacity=".5" x="139.47" y="243.197" width="120" height="6" rx="3" fill="#242A45"/><rect opacity=".25" x="139.47" y="257.197" width="64" height="6" rx="3" fill="#242A45"/><circle cx="108.47" cy="309.197" r="16" fill="#EC7878"/><rect opacity=".5" x="139.47" y="299.197" width="120" height="6" rx="3" fill="#242A45"/><rect opacity=".25" x="139.47" y="313.197" width="64" height="6" rx="3" fill="#242A45"/></g><defs><filter id="a" x="0" y="0" width="544" height="354" filterUnits="userSpaceOnUse" color-interpolation-filters="sRGB"><feFlood flood-opacity="0" result="BackgroundImageFix"/><feColorMatrix in="SourceAlpha" type="matrix" values="0 0 0 0 0 0 0 0 0 0 0 0 0 0 0 0 0 0 127 0" result="hardAlpha"/><feOffset dy="4"/><feGaussianBlur stdDeviation="2"/><feComposite in2="hardAlpha" operator="out"/><feColorMatrix type="matrix" values="0 0 0 0 0 0 0 0 0 0 0 0 0 0 0 0 0 0 0.25 0"/><feBlend mode="normal" in2="BackgroundImageFix" result="effect1_dropShadow_0_428"/><feBlend mode="normal" in="SourceGraphic" in2="effect1_dropShadow_0_428" result="shape"/></filter></defs></svg>