
<svg width="482" height="408" fill="none" xmlns="http://www.w3.org/2000/svg"><g filter="url(#a)"><rect x="4" width="350" height="346" rx="8" fill="#E8EAF6"/><mask id="b" style="mask-type:luminance" maskUnits="userSpaceOnUse" x="4" y="0" width="350" height="346"><rect x="4" width="350" height="346" rx="8" fill="#fff"/></mask><g mask="url(#b)"><path fill="#242A45" d="M.47.197h547v59H.47z"/><g fill="#fff"><circle opacity=".245" cx="42.47" cy="30.197" r="16"/><rect opacity=".75" x="73.47" y="20.197" width="120" height="6" rx="3"/><rect opacity=".25" x="73.47" y="34.197" width="64" height="6" rx="3"/></g></g></g><g filter="url(#c)"><rect x="31" y="138" width="200" height="255" rx="8" fill="#fff"/></g><rect opacity=".5" x="99.683" y="173" width="101.317" height="6" rx="3" fill="#242A45"/><circle cx="70" cy="183" r="16" fill="#5267DF"/><rect opacity=".25" x="99.683" y="187" width="54.036" height="6" rx="3" fill="#242A45"/><circle cx="70" cy="239" r="16" fill="#5267DF"/><rect opacity=".5" x="99.683" y="229" width="101.317" height="6" rx="3" fill="#242A45"/><rect opacity=".25" x="99.683" y="243" width="54.036" height="6" rx="3" fill="#242A45"/><circle cx="70" cy="295" r="16" fill="#5267DF"/><rect opacity=".5" x="99.683" y="285" width="101.317" height="6" rx="3" fill="#242A45"/><rect opacity=".25" x="99.683" y="299" width="54.036" height="6" rx="3" fill="#242A45"/><circle cx="70" cy="351" r="16" fill="#5267DF"/><rect opacity=".5" x="99.683" y="341" width="101.317" height="6" rx="3" fill="#242A45"/><rect opacity=".25" x="99.683" y="355" width="54.036" height="6" rx="3" fill="#242A45"/><g filter="url(#d)"><g filter="url(#e)"><rect x="255" y="138" width="200" height="255" rx="8" fill="#fff"/></g><rect opacity=".5" x="323.683" y="173" width="101.317" height="6" rx="3" fill="#242A45"/><circle cx="294" cy="183" r="16" fill="#5267DF"/><rect opacity=".25" x="323.683" y="187" width="54.036" height="6" rx="3" fill="#242A45"/><circle cx="294" cy="239" r="16" fill="#FA5959"/><rect opacity=".5" x="323.683" y="229" width="101.317" height="6" rx="3" fill="#242A45"/><rect opacity=".25" x="323.683" y="243" width="54.036" height="6" rx="3" fill="#242A45"/><circle cx="294" cy="295" r="16" fill="#5267DF"/><rect opacity=".5" x="323.683" y="285" width="101.317" height="6" rx="3" fill="#242A45"/><rect opacity=".25" x="323.683" y="299" width="54.036" height="6" rx="3" fill="#242A45"/><circle cx="294" cy="351" r="16" fill="#5267DF"/><rect opacity=".5" x="323.683" y="341" width="101.317" height="6" rx="3" fill="#242A45"/><rect opacity=".25" x="323.683" y="355" width="54.036" height="6" rx="3" fill="#242A45"/></g><rect x="31" y="85" width="237" height="34" rx="8" fill="#fff"/><g stroke="#5267DF" stroke-width="20"><circle cx="376" cy="169" r="67" fill="#495DCF" fill-opacity=".2"/><path d="m423 217 49 49" stroke-linecap="round" stroke-linejoin="round"/></g><defs><filter id="a" x="0" y="0" width="358" height="354" filterUnits="userSpaceOnUse" color-interpolation-filters="sRGB"><feFlood flood-opacity="0" result="BackgroundImageFix"/><feColorMatrix in="SourceAlpha" type="matrix" values="0 0 0 0 0 0 0 0 0 0 0 0 0 0 0 0 0 0 127 0" result="hardAlpha"/><feOffset dy="4"/><feGaussianBlur stdDeviation="2"/><feComposite in2="hardAlpha" operator="out"/><feColorMatrix type="matrix" values="0 0 0 0 0 0 0 0 0 0 0 0 0 0 0 0 0 0 0.25 0"/><feBlend mode="normal" in2="BackgroundImageFix" result="effect1_dropShadow_0_967"/><feBlend mode="normal" in="SourceGraphic" in2="effect1_dropShadow_0_967" result="shape"/></filter><filter id="c" x="21" y="133" width="220" height="275" filterUnits="userSpaceOnUse" color-interpolation-filters="sRGB"><feFlood flood-opacity="0" result="BackgroundImageFix"/><feColorMatrix in="SourceAlpha" type="matrix" values="0 0 0 0 0 0 0 0 0 0 0 0 0 0 0 0 0 0 127 0" result="hardAlpha"/><feOffset dy="5"/><feGaussianBlur stdDeviation="5"/><feColorMatrix type="matrix" values="0 0 0 0 0.285333 0 0 0 0 0.363695 0 0 0 0 0.811481 0 0 0 0.0830693 0"/><feBlend mode="normal" in2="BackgroundImageFix" result="effect1_dropShadow_0_967"/><feBlend mode="normal" in="SourceGraphic" in2="effect1_dropShadow_0_967" result="shape"/></filter><filter id="d" x="245" y="133" width="220" height="275" filterUnits="userSpaceOnUse" color-interpolation-filters="sRGB"><feFlood flood-opacity="0" result="BackgroundImageFix"/><feColorMatrix in="SourceAlpha" type="matrix" values="0 0 0 0 0 0 0 0 0 0 0 0 0 0 0 0 0 0 127 0" result="hardAlpha"/><feOffset dy="5"/><feGaussianBlur stdDeviation="5"/><feColorMatrix type="matrix" values="0 0 0 0 0.285333 0 0 0 0 0.363695 0 0 0 0 0.811481 0 0 0 0.0830693 0"/><feBlend mode="normal" in2="BackgroundImageFix" result="effect1_dropShadow_0_967"/><feBlend mode="normal" in="SourceGraphic" in2="effect1_dropShadow_0_967" result="shape"/></filter><filter id="e" x="245" y="133" width="220" height="275" filterUnits="userSpaceOnUse" color-interpolation-filters="sRGB"><feFlood flood-opacity="0" result="BackgroundImageFix"/><feColorMatrix in="SourceAlpha" type="matrix" values="0 0 0 0 0 0 0 0 0 0 0 0 0 0 0 0 0 0 127 0" result="hardAlpha"/><feOffset dy="5"/><feGaussianBlur stdDeviation="5"/><feColorMatrix type="matrix" values="0 0 0 0 0.285333 0 0 0 0 0.363695 0 0 0 0 0.811481 0 0 0 0.0830693 0"/><feBlend mode="normal" in2="BackgroundImageFix" result="effect1_dropShadow_0_967"/><feBlend mode="normal" in="SourceGraphic" in2="effect1_dropShadow_0_967" result="shape"/></filter></defs></svg>